<svg width="180" height="180" viewBox="0 0 180 180" fill="none" xmlns="http://www.w3.org/2000/svg">
<rect width="180" height="180" rx="48" fill="#EF5DA8"/>
<path d="M61.5187 124.508C61.5107 124.198 61.5428 123.888 61.6143 123.586L80.7145 42.9049C81.0986 41.2825 82.5473 40.1367 84.2146 40.1367H89.4627C91.2015 40.1367 92.6914 41.3807 93.0017 43.0916L94.8628 53.3525C94.9533 53.8515 94.9373 54.3639 94.8157 54.8562L74.5105 137.128C74.114 138.735 72.673 139.863 71.0185 139.863H65.4223C63.4722 139.863 61.8773 138.309 61.8267 136.36L61.5187 124.508ZM48.3406 40.1367C50.0604 40.1367 51.5396 41.3542 51.8703 43.042L67.6423 123.544C67.7069 123.874 67.7249 124.211 67.696 124.546L66.6542 136.577C66.4932 138.436 64.937 139.863 63.0708 139.863H55.9683C54.282 139.863 52.8221 138.692 52.4569 137.045L31.9293 44.5125C31.431 42.2666 33.1402 40.1367 35.4407 40.1367H48.3406ZM112.503 124.182C112.478 123.861 112.497 123.539 112.558 123.223L128.133 43.0476C128.462 41.3572 129.942 40.1367 131.664 40.1367H144.562C146.862 40.1367 148.571 42.2649 148.074 44.5102L127.61 137.043C127.246 138.691 125.785 139.863 124.098 139.863H117.032C115.151 139.863 113.588 138.415 113.445 136.54L112.503 124.182ZM95.8558 40.1367C97.5222 40.1367 98.9704 41.2814 99.3553 42.9027L118.587 123.911C118.661 124.225 118.693 124.547 118.682 124.869L118.274 136.394C118.205 138.329 116.616 139.863 114.679 139.863H109.046C107.393 139.863 105.953 138.737 105.555 137.133L85.1242 54.8176C84.9972 54.3061 84.9842 53.7729 85.0861 53.2558L87.0995 43.0381C87.4317 41.3522 88.9101 40.1367 90.6285 40.1367H95.8558Z" fill="white"/>
</svg>
